<svg xmlns="http://www.w3.org/2000/svg" width="400" height="142.126">
    <g fill-rule="evenodd">
        <path d="M107.796 34.927c-.114.113-3.167.914-3.923 1.028-.298.045-.584.149-.634.23-.051.082-.308.148-.572.148-.265 0-.522.067-.572.149-.051.081-.336.184-.635.229-.299.045-.993.208-1.543.362-.55.154-1.863.508-2.917.785-1.054.278-2.179.579-2.5.668-.321.09-.771.202-1 .248a4.874 4.874 0 0 0-.75.225 4.984 4.984 0 0 1-.833.234c-.275.052-1.213.289-2.084.527-2.657.727-4.063 1.097-4.5 1.183a4.593 4.593 0 0 0-.75.224c-.183.078-.52.177-.75.22-.381.072-1.028.243-3.916 1.037-.55.151-1.263.338-1.584.414-.539.129-.928.236-2.375.651-.298.085-1.591.428-2.875.762-1.283.335-2.596.682-2.916.773a16.51 16.51 0 0 1-1 .25 4.764 4.764 0 0 0-.75.226 4.407 4.407 0 0 1-.75.22c-.229.044-1.017.249-1.75.456-.734.207-1.722.459-2.197.561-.475.102-.919.24-.986.307-.068.068-.331.123-.585.123-.255 0-.504.066-.554.148-.051.081-.336.187-.635.234-.299.048-.806.162-1.127.254-.321.092-1.446.394-2.5.672-1.054.277-2.366.629-2.916.781-.55.153-1.188.313-1.417.357a4.38 4.38 0 0 0-.75.22 4.662 4.662 0 0 1-.75.225c-.557.11-4.683 1.2-5 1.32-.292.111-1.024.275-1.793.402-.299.05-.585.157-.635.238-.05.082-.308.149-.572.149-.264 0-.522.066-.572.148-.05.081-.336.185-.635.23-.475.072-2.701.643-4.46 1.144-.321.092-.846.232-1.166.311-.321.079-.884.229-1.25.333-.367.104-.93.253-1.25.332-.68.165-3.65.954-4.5 1.194-.321.09-.771.202-1 .248a4.764 4.764 0 0 0-.75.226c-.184.078-.521.18-.75.226-.229.047-.679.159-1 .249-.85.24-3.821 1.028-4.5 1.194-1.37.334-1.794.459-2.052.603-.222.125 5.812 6.239 32.359 32.785l32.632 32.632.197-.678c.108-.372.271-.959.362-1.302.754-2.847 1.03-3.862 1.172-4.304.089-.281.163-.671.163-.865 0-.194.067-.395.148-.445.082-.05.186-.336.233-.635.046-.299.236-1.105.421-1.793.682-2.526 1.02-3.773 1.289-4.75.152-.55.311-1.187.355-1.417.043-.229.143-.566.221-.75.078-.183.177-.52.22-.75.044-.229.203-.866.354-1.416.151-.55.464-1.713.695-2.584.232-.871.536-1.996.676-2.5s.29-1.104.334-1.333a4.78 4.78 0 0 1 .214-.75c.151-.371.287-.872.929-3.417.243-.962.501-1.937.573-2.166.073-.229.216-.736.319-1.125l.372-1.417c.102-.39.248-.896.325-1.125.076-.229.374-1.354.663-2.5.53-2.103.715-2.804 1.002-3.792.362-1.246.52-1.823.652-2.375.077-.321.263-1.033.414-1.583.794-2.888.965-3.536 1.037-3.917a4.5 4.5 0 0 1 .221-.75c.078-.183.177-.52.22-.75.104-.549 1.109-4.351 1.806-6.833.09-.321.201-.771.248-1a4.66 4.66 0 0 1 .226-.75c.078-.183.177-.521.221-.75.078-.402.792-3.132 1.135-4.333.091-.321.231-.846.31-1.167.08-.321.221-.846.313-1.167.338-1.17.546-1.929.685-2.5.166-.679.954-3.65 1.194-4.5.091-.321.203-.77.249-1 .047-.229.148-.566.226-.75.078-.183.179-.52.226-.75.046-.229.158-.679.249-1 .24-.85 1.028-3.82 1.194-4.5.078-.321.227-.883.332-1.25a18.1 18.1 0 0 0 .273-1.083c.047-.229.148-.567.226-.75a4.38 4.38 0 0 0 .22-.75c.043-.229.235-.979.426-1.667.19-.687.348-1.306.35-1.375.005-.144-.562-.17-.7-.031"
              fill="#fbfbfb"/>
        <path d="M210 3.142c0 .078-.915.193-2.032.256-1.118.063-2.112.178-2.209.255-.097.078-.457.187-.801.244-1.555.256-1.8.316-1.886.455-.05.081-.308.148-.572.148-.264 0-.527.075-.583.167-.057.091-.286.166-.51.166-.224 0-.407.075-.407.167 0 .092-.225.167-.5.167s-.5.065-.5.145c0 .08-.282.19-.626.245-.344.056-.941.253-1.325.438-.385.186-.778.338-.874.338A.172.172 0 0 0 197 6.5c0 .092-.15.167-.333.167-.184 0-.334.075-.334.166 0 .092-.15.167-.333.167-.183 0-.333.075-.333.167 0 .091-.15.166-.334.166-.183 0-.333.067-.333.149 0 .082-.194.197-.431.257-.237.059-.919.405-1.517.768-.597.363-1.137.66-1.199.66-.062 0-.221.15-.353.333-.132.183-.299.333-.372.333-.19 0-1.829 1.166-2.148 1.528-.148.168-.321.306-.384.306-.472 0-6.263 6.099-6.263 6.596 0 .063-.132.236-.293.384-.409.376-1.207 1.58-1.207 1.82 0 .11-.075.2-.166.2-.092 0-.167.112-.167.25 0 .137-.056.25-.125.251-.069.001-.208.169-.308.375-.485.987-.995 1.879-1.103 1.927-.066.03-.168.311-.227.625-.059.315-.174.572-.256.572-.081 0-.148.15-.148.333 0 .183-.075.333-.166.333-.092 0-.167.15-.167.334 0 .183-.075.333-.167.333-.091 0-.166.146-.166.323 0 .178-.075.37-.167.427-.092.057-.167.242-.167.413 0 .17-.057.334-.127.365-.15.065-.706 1.793-.706 2.195 0 .152-.075.277-.167.277-.091 0-.166.221-.166.49 0 .27-.075.537-.167.593-.092.057-.167.324-.167.594 0 .269-.075.49-.166.49-.092 0-.167.258-.167.573 0 .316-.075.62-.167.677-.091.056-.166.383-.166.726 0 .343-.068.695-.151.782-.148.156-.256.848-.442 2.825-.051.55-.164 1.217-.25 1.483-.206.632-.204 10.014.001 11.05.087.44.2 1.213.25 1.717.169 1.702.292 2.416.442 2.575.082.087.15.481.15.875s.075.717.166.717c.092 0 .167.258.167.573 0 .316.075.62.167.677.091.056.166.319.166.583 0 .264.075.527.167.583.092.057.167.324.167.594 0 .269.065.49.145.49.08 0 .194.303.253.674.059.37.175.802.257.958.083.156.277.584.432.951.155.367.387.884.514 1.151.128.266.232.585.232.708s.075.224.167.224c.091 0 .166.15.166.334 0 .183.069.333.154.333.084 0 .206.244.271.542.064.298.164.579.221.625.111.088.367.52.914 1.541.185.344.397.625.471.625.075 0 .136.15.136.334 0 .183.075.333.167.333.091 0 .166.08.166.179 0 .098.094.283.209.41.474.529.625.737.625.862 0 .073.169.334.375.58.206.246.746.921 1.199 1.5 1.101 1.404 4.429 4.712 5.676 5.64.55.409 1.037.785 1.083.836.046.051.346.274.667.496.32.221.674.491.786.599.111.108.561.368 1 .577.438.21.834.424.88.476.046.053.309.208.584.345.275.137.537.29.583.341.187.204 2.629 1.326 2.887 1.326.154 0 .28.075.28.166 0 .092.187.167.416.167.23 0 .417.075.417.167 0 .091.151.166.336.166.184 0 .465.067.625.148.518.263 1.109.493 1.789.695.367.109.797.264.956.344.159.081.474.147.699.147.225 0 .451.068.503.152.052.084.657.206 1.346.27.688.065 1.292.183 1.342.264.049.081.494.147.987.147.494 0 .944.075 1 .167.057.091.769.166 1.584.166.814 0 1.526.075 1.583.167.063.103 1.471.167 3.667.167 2.196 0 3.603-.064 3.666-.167.057-.092.774-.167 1.594-.167.882 0 1.49-.068 1.49-.166 0-.092.4-.167.889-.167.488 0 .945-.056 1.013-.125.069-.069.7-.221 1.403-.337 2.179-.362 2.362-.404 2.456-.556.05-.082.312-.149.582-.149.269 0 .49-.075.49-.166 0-.092.183-.167.407-.167.224 0 .453-.075.51-.167.056-.091.286-.166.51-.166.223 0 .406-.075.406-.167 0-.092.183-.167.407-.167.224 0 .453-.075.51-.166.057-.092.249-.167.427-.167.177 0 .323-.075.323-.167 0-.091.114-.166.253-.166.3 0 3.64-1.591 3.953-1.882.119-.111.515-.351.88-.533.365-.183.701-.375.747-.428.046-.053.459-.35.917-.661.458-.311.968-.69 1.133-.842.164-.152.559-.417.876-.587.317-.171.618-.444.67-.606.051-.162.191-.295.31-.295.24 0 3.27-2.944 3.928-3.816.229-.304.641-.794.916-1.088.275-.294.575-.653.667-.798.092-.146.673-1.024 1.292-1.953.618-.929 1.125-1.762 1.125-1.85 0-.089.075-.161.166-.161.092 0 .167-.113.167-.25 0-.138.069-.25.153-.25.085 0 .203-.225.264-.5.06-.275.179-.5.263-.5.084 0 .153-.15.153-.334 0-.183.075-.333.167-.333.092 0 .167-.11.167-.245s.15-.512.333-.838c.183-.327.333-.704.333-.839 0-.134.075-.245.167-.245.092 0 .167-.15.167-.333 0-.183.075-.333.166-.333.092 0 .167-.183.167-.407 0-.224.068-.449.152-.501.084-.052.203-.393.265-.759.061-.366.18-.707.264-.759.084-.052.152-.273.152-.491 0-.218.075-.443.167-.5.092-.057.167-.287.167-.512 0-.225.065-.539.146-.699.262-.518.52-1.47.52-1.916 0-.24.075-.483.167-.54.092-.056.167-.436.167-.843s.059-.74.131-.74c.072 0 .139-.131.15-.292l.145-2.256c.069-1.08.189-2.003.266-2.051.184-.114.184-9.234 0-9.234-.078 0-.194-.844-.258-1.875-.145-2.322-.177-2.59-.32-2.733-.063-.063-.114-.398-.114-.744s-.075-.675-.167-.732c-.092-.056-.167-.394-.167-.75s-.075-.693-.166-.75c-.092-.056-.167-.323-.167-.593 0-.269-.075-.49-.167-.49-.091 0-.166-.262-.166-.583 0-.321-.075-.584-.167-.584-.092 0-.167-.225-.167-.5s-.066-.5-.147-.5c-.082 0-.199-.337-.261-.75-.061-.412-.182-.75-.269-.75-.086 0-.156-.11-.156-.245 0-.338-1.613-3.913-1.845-4.088-.06-.046-.168-.271-.238-.5a3.925 3.925 0 0 0-.403-.833c-.152-.229-.38-.623-.507-.875-.126-.252-.292-.459-.368-.459-.077 0-.139-.112-.139-.25 0-.137-.075-.25-.167-.25-.091 0-.166-.08-.166-.178 0-.185-.839-1.466-1.214-1.851a8.117 8.117 0 0 1-.579-.74c-.544-.774-1.202-1.55-2.041-2.409-.412-.421-1.13-1.173-1.595-1.669-.464-.497-.904-.913-.975-.925-.072-.013-.41-.28-.751-.593-.657-.605-3.239-2.468-3.419-2.468-.059 0-.268-.15-.465-.333-.197-.184-.456-.334-.576-.334-.12 0-.219-.064-.219-.143 0-.078-.731-.51-1.625-.958-.893-.448-1.65-.872-1.68-.94-.031-.069-.151-.125-.266-.125-.116 0-.429-.106-.695-.234-1.289-.624-2.079-.933-2.381-.933-.183 0-.379-.075-.436-.167-.057-.091-.286-.166-.51-.166-.224 0-.407-.075-.407-.167 0-.092-.225-.167-.5-.167s-.5-.075-.5-.166c0-.092-.262-.167-.583-.167-.321 0-.583-.075-.583-.167 0-.091-.3-.166-.667-.166-.367 0-.667-.075-.667-.167 0-.092-.285-.167-.633-.167-.348 0-.707-.073-.797-.164-.09-.09-1.046-.214-2.123-.275-1.077-.062-1.998-.176-2.046-.253-.114-.185-9.734-.184-9.734.001m92.167-.001c0 .078-1.032.193-2.292.256-1.26.063-2.317.187-2.347.275-.031.089-.345.161-.699.161-.353 0-.689.075-.746.167-.056.092-.398.167-.76.167-.361 0-.656.075-.656.166 0 .092-.258.167-.574.167-.315 0-.62.075-.676.167-.057.091-.282.166-.5.166-.219 0-.444.075-.5.167-.057.092-.282.167-.5.167-.219 0-.438.066-.489.147-.05.082-.373.198-.718.259s-1.02.295-1.502.519c-2.324 1.084-2.798 1.317-2.875 1.416-.046.059-.28.156-.521.214-.241.059-.934.408-1.539.776-.605.368-1.17.669-1.256.669-.086 0-.181.06-.211.134-.031.074-.506.429-1.056.789-.55.359-1.025.711-1.056.782-.03.07-.131.128-.224.128s-.38.225-.637.5-.548.5-.647.5c-.424 0-5.702 5.535-6.099 6.396-.09.195-.296.452-.458.572-.163.12-.296.326-.296.458s-.061.241-.135.241c-.126 0-.255.209-1.133 1.833-.173.321-.371.608-.44.639-.069.03-.125.155-.125.278 0 .122-.056.247-.125.277-.18.08-1.513 2.804-1.639 3.349-.058.253-.173.501-.254.552-.082.05-.149.274-.149.498 0 .224-.075.407-.166.407-.092 0-.167.114-.167.252 0 .139-.075.402-.167.584l-.333.662a1.743 1.743 0 0 0-.167.657c0 .179-.066.367-.148.417-.081.05-.187.336-.234.635a11.99 11.99 0 0 1-.284 1.21 19.705 19.705 0 0 0-.391 1.778c-.106.612-.249 1.168-.318 1.236-.068.069-.125.52-.125 1.004 0 .483-.075.925-.166.982-.092.056-.167.698-.167 1.426 0 .771-.07 1.324-.167 1.324-.107 0-.166 1.802-.166 5.073 0 3.203.061 5.112.166 5.177.092.056.167.661.167 1.343 0 .716.07 1.24.167 1.24.091 0 .166.371.166.823 0 .453.075.87.167.927.092.057.168.38.171.718.002.339.082.915.178 1.282.096.367.212.854.258 1.083.047.23.146.567.22.75.074.184.232.671.35 1.084.118.412.276.821.352.908.076.087.138.293.138.458 0 .165.075.3.166.3.092 0 .167.225.167.5s.075.5.167.5c.091 0 .166.15.166.334 0 .183.075.333.167.333.092 0 .167.161.167.358 0 .386.818 2.189 1.035 2.281.072.03.131.199.131.375s.075.319.167.319c.092 0 .167.15.167.334 0 .183.066.333.147.333.081 0 .192.131.247.292.055.16.291.591.523.958.233.367.473.776.534.909.1.22.334.534.799 1.071.091.106.308.446.481.754.173.309.436.691.583.849.148.157.644.718 1.102 1.245 2.19 2.519 5.03 5.128 6.542 6.011.298.174.542.375.542.447 0 .072.112.131.25.131.137 0 .25.075.25.166 0 .092.117.167.26.167.142 0 .213.075.156.167-.056.091.052.166.24.166.189 0 .344.067.344.148 0 .081.131.188.291.239.302.095 1.561.796 1.709.951.089.093 2.52 1.285 3.525 1.728.335.147.728.268.875.268.146 0 .266.075.266.166 0 .092.188.167.417.167.229 0 .417.075.417.167 0 .091.183.166.406.166.224 0 .454.075.51.167.057.092.286.167.51.167.224 0 .407.075.407.166 0 .092.189.167.419.167.23 0 .549.068.708.15.159.083.627.241 1.04.351.412.11.914.264 1.115.342.202.078.935.193 1.63.256.695.063 1.304.179 1.352.258.049.079.493.143.986.143s.943.075 1 .167c.057.091.732.166 1.5.166s1.443.075 1.5.167c.065.105 1.835.167 4.76.167 2.993 0 4.657-.06 4.657-.167 0-.099.607-.167 1.49-.167.819 0 1.536-.075 1.593-.166.057-.092.511-.167 1.01-.167s.907-.062.907-.137c0-.076.656-.222 1.458-.325 2.106-.271 2.7-.389 2.803-.556.05-.082.312-.149.582-.149.269 0 .49-.075.49-.166 0-.092.188-.167.417-.167.229 0 .416-.075.416-.167 0-.091.225-.166.5-.166s.5-.075.5-.167c0-.092.151-.167.336-.167.185 0 .485-.075.667-.166l.662-.334c.182-.091.411-.166.509-.166.259 0 3.477-1.459 3.66-1.659.045-.051.308-.194.583-.319.275-.125.612-.292.75-.37.137-.079.484-.261.769-.406.286-.145.661-.39.833-.546.173-.156.54-.396.815-.534.275-.137.595-.339.711-.449.116-.11.51-.367.875-.572l.664-.373V45.5h-26v4.25c0 3.127.051 4.25.194 4.25.107 0 .149.045.094.101-.117.117.477.718 1.01 1.024.274.157 1.953.208 6.784.208h6.421l-.043 8.274c-.038 7.149-.078 8.293-.294 8.415-.137.078-.85.422-1.583.764-.733.343-1.358.681-1.389.752-.03.071-.197.129-.37.129s-.571.144-.885.32c-.313.176-.916.372-1.338.436-.422.063-.768.181-.768.263 0 .081-.183.147-.407.147-.224 0-.453.075-.51.167-.056.092-.356.167-.666.167-.31 0-.61.075-.667.166-.057.092-.394.167-.75.167s-.693.075-.75.167c-.057.091-.511.166-1.01.166s-.907.075-.907.167c0 .101-.694.167-1.75.167-1.055 0-1.75.066-1.75.166s-.663.167-1.656.167c-.925 0-1.703-.074-1.76-.167-.058-.093-.835-.166-1.76-.166-.994 0-1.657-.067-1.657-.167 0-.092-.408-.167-.907-.167-.499 0-.953-.075-1.01-.166-.056-.092-.394-.167-.75-.167s-.693-.075-.75-.167c-.056-.091-.356-.166-.666-.166-.31 0-.61-.075-.667-.167-.057-.092-.286-.167-.51-.167-.224 0-.407-.062-.407-.139 0-.076-.093-.147-.208-.157-.805-.073-1.625-.271-1.625-.392 0-.08-.15-.145-.333-.145-.184 0-.334-.075-.334-.167 0-.091-.099-.166-.221-.166-.121 0-.847-.338-1.612-.75-.765-.413-1.484-.75-1.598-.75-.114 0-.233-.061-.263-.135-.031-.074-.431-.39-.889-.701-.458-.312-.979-.702-1.156-.866-.178-.164-.382-.298-.453-.298-.364 0-4.298-4.208-4.78-5.112a3.176 3.176 0 0 0-.402-.584c-.115-.121-.315-.426-.444-.677a4.066 4.066 0 0 0-.515-.755c-.153-.165-.335-.522-.403-.793s-.174-.531-.236-.578c-.223-.168-1.194-2.221-1.194-2.525 0-.17-.075-.31-.167-.31-.092 0-.167-.141-.167-.314 0-.173-.112-.529-.249-.792-.137-.262-.249-.647-.25-.854a1.75 1.75 0 0 0-.147-.667c-.243-.481-.52-1.458-.52-1.833 0-.194-.075-.4-.167-.456-.092-.057-.167-.436-.167-.844 0-.407-.075-.74-.166-.74-.094 0-.167-.472-.167-1.083s-.073-1.083-.167-1.083c-.102 0-.166-.83-.166-2.157 0-1.258-.07-2.2-.167-2.26-.092-.057-.167-.507-.167-1s.075-.943.167-1c.097-.06.167-.974.167-2.177 0-1.271.064-2.073.166-2.073.093 0 .167-.441.167-.99 0-.545.075-1.037.167-1.093.091-.057.166-.394.166-.75s.075-.694.167-.75c.092-.057.167-.325.167-.596 0-.271.068-.622.151-.782.083-.159.277-.777.432-1.372.155-.596.349-1.214.432-1.373.083-.159.151-.44.151-.625s.075-.336.167-.336c.092 0 .167-.15.167-.333 0-.183.075-.333.166-.333.092 0 .167-.09.167-.199 0-.3 1.533-3.339 1.871-3.708.162-.177.296-.415.296-.528 0-.112.057-.229.128-.26.206-.089 1.372-1.749 1.372-1.953 0-.102.073-.186.162-.186.09 0 .408-.274.709-.61 1.131-1.266 2.681-2.723 2.896-2.723.055 0 .309-.225.566-.5.257-.275.527-.5.6-.5.17 0 1.466-.877 1.539-1.042.03-.068.199-.125.375-.125s.319-.061.319-.135c0-.075.263-.239.584-.365.32-.126.583-.29.583-.364 0-.075.11-.136.245-.136.218 0 1.677-.601 2.461-1.014.159-.084.436-.152.615-.152s.372-.075.429-.167c.057-.092.286-.167.51-.167.224 0 .407-.075.407-.166 0-.092.258-.167.573-.167.316 0 .617-.07.67-.155.085-.138 2.642-.463 2.965-.378.069.018.125-.042.125-.134 0-.1.711-.166 1.8-.166 1.077 0 1.873-.073 1.982-.182.117-.118.585-.145 1.325-.076a77.83 77.83 0 0 0 3.06.186c1.054.045 2.029.128 2.166.185.36.149.448.163 1.874.295.71.066 1.333.189 1.385.272.052.084.348.153.658.153.31 0 .61.075.667.167.056.091.323.166.593.166.269 0 .49.075.49.167 0 .092.183.167.407.167.224 0 .453.075.51.166.056.092.234.167.395.167s.607.152.991.338c.384.185.924.382 1.198.437.274.055.499.166.499.246 0 .08.15.146.333.146.184 0 .334.061.334.135 0 .075.262.239.583.365.321.126.583.29.583.364 0 .075.074.136.164.136.09 0 .574.262 1.075.583.502.321.991.583 1.087.583.096 0 .174.061.174.136 0 .123.382.357 1.917 1.18 1.992 1.067 4.3.007 5.584-2.566.137-.275.381-.645.541-.823.16-.177.292-.421.292-.541 0-.121.056-.219.125-.219.242-.001 1.708-2.527 1.708-2.945 0-.255-.381-.67-1.388-1.513-.246-.207-.495-.375-.552-.375-.057 0-.226-.134-.374-.298-.317-.35-1.931-1.536-2.09-1.536-.061 0-.258-.138-.439-.306a4.184 4.184 0 0 0-.785-.542c-.25-.129-.493-.28-.539-.336-.15-.183-1.742-.982-1.957-.982-.115 0-.209-.075-.209-.167 0-.092-.15-.167-.334-.167-.183 0-.334-.056-.334-.125-.002-.149-.809-.541-1.116-.541-.119 0-.216-.075-.216-.167 0-.092-.15-.167-.334-.167-.183 0-.333-.075-.333-.166 0-.092-.141-.167-.314-.167-.173 0-.529-.112-.792-.249s-.642-.249-.842-.25c-.201-.001-.412-.076-.469-.168-.056-.091-.281-.166-.5-.166-.218 0-.443-.075-.5-.167-.056-.092-.323-.167-.593-.167-.269 0-.49-.066-.49-.148 0-.14-.384-.234-1.876-.459-.344-.052-.668-.162-.718-.244-.051-.082-.373-.149-.716-.149-.343 0-.695-.072-.783-.159-.088-.088-1.08-.212-2.206-.276-1.125-.063-2.085-.179-2.133-.257-.115-.184-10.401-.184-10.401 0m50.577.901c-.044.114-.06 18.508-.037 40.875l.043 40.666 23.625.043 23.625.042v-5.316c0-4.694-.031-5.328-.264-5.418-.145-.055-7.945-.101-17.333-.101h-17.07v-71h-6.255c-4.851 0-6.273.047-6.334.209m-136.819 9.947c.087.086.908.187 1.825.224.917.038 1.817.11 2 .16.183.05.877.145 1.542.212.664.066 1.208.187 1.208.268 0 .081.262.147.583.147.321 0 .584.075.584.167 0 .091.183.166.406.166.224 0 .454.075.51.167.057.092.271.167.477.167.205 0 .445.063.532.141.087.078.474.264.859.413 1.534.592 4.586 2.316 5.216 2.946.046.045.533.458 1.082.916 1.256 1.047 1.788 1.579 2.834 2.834.459.55.877 1.037.929 1.083.205.179 1.655 2.52 1.655 2.672 0 .089.075.161.166.161.092 0 .167.15.167.334 0 .183.075.333.167.333.091 0 .166.113.166.25s.075.25.167.25c.092 0 .167.103.167.229 0 .201.16.607 1.025 2.604.099.23.246.547.327.706.081.16.148.436.148.616 0 .179.075.372.166.428.092.057.167.282.167.5 0 .219.075.444.167.5.091.057.166.361.166.677 0 .315.066.573.147.573.15 0 .473 2.063.627 4 .048.596.156 1.155.24 1.242.201.208.201 9.309 0 9.517-.084.087-.189.645-.233 1.241-.126 1.693-.498 4-.647 4-.073 0-.134.263-.134.584 0 .32-.075.583-.166.583-.092 0-.167.225-.167.5s-.075.5-.167.5c-.091 0-.166.183-.166.407 0 .224-.075.453-.167.51-.092.056-.167.237-.167.401 0 .163-.105.515-.234.781a71.416 71.416 0 0 0-1.116 2.526c-.127.298-.288.542-.357.542s-.126.15-.126.333c0 .183-.061.333-.136.333-.074 0-.264.244-.42.542-.283.538-.898 1.44-1.366 2.002-.135.161-.245.372-.245.468 0 .096-.075.128-.166.072-.092-.057-.167-.001-.167.124 0 .185-.622.991-1.29 1.672a27.082 27.082 0 0 1-3.306 2.831 69.715 69.715 0 0 0-1.487 1.077c-.092.075-.917.499-1.834.943-.916.444-1.955.949-2.307 1.122-.352.173-.779.314-.949.314-.169 0-.349.068-.4.15-.051.083-.543.203-1.094.267-.55.064-1.042.183-1.093.266-.051.083-.347.15-.657.15-.31 0-.61.075-.666.167-.057.092-.544.167-1.084.167-.539 0-1.026.075-1.083.166-.131.212-7.787.227-8.008.016-.087-.084-.534-.194-.992-.246-1.908-.216-2.417-.311-2.417-.453 0-.083-.056-.136-.125-.119-.279.07-1.881-.24-1.968-.38-.051-.083-.276-.151-.5-.151-.224 0-.407-.059-.407-.13 0-.072-.337-.23-.75-.352-.412-.122-.75-.288-.75-.37 0-.081-.099-.148-.221-.148s-.591-.187-1.042-.416c-.451-.229-.914-.416-1.028-.417-.115 0-.209-.075-.209-.167 0-.092-.112-.167-.25-.167-.137 0-.25-.075-.25-.166 0-.092-.112-.167-.25-.167-.137 0-.25-.056-.251-.125-.001-.069-.469-.425-1.039-.792-1.016-.652-3.548-3.055-4.543-4.311a19.37 19.37 0 0 0-.873-1.025c-.323-.342-.639-.851-1.445-2.33a2.603 2.603 0 0 0-.268-.417c-.047-.046-.271-.458-.497-.917-.227-.458-.46-.871-.519-.916-.058-.046-.162-.341-.23-.656a4.984 4.984 0 0 0-.438-1.13c-.172-.307-.313-.701-.313-.876 0-.175-.075-.365-.167-.422-.092-.056-.167-.286-.167-.51 0-.223-.075-.406-.166-.406-.092 0-.167-.221-.167-.49 0-.27-.075-.537-.167-.594-.091-.056-.166-.346-.166-.643 0-.297-.07-.611-.156-.698-.147-.15-.312-1.302-.702-4.909-.31-2.862-.172-9.392.231-10.916.048-.184.142-.952.208-1.709.066-.756.187-1.375.269-1.375.082 0 .15-.258.15-.573 0-.316.075-.62.166-.677.092-.056.167-.323.167-.593 0-.269.075-.49.167-.49.091 0 .166-.225.166-.5s.075-.5.167-.5c.092 0 .167-.151.167-.336 0-.184.066-.465.146-.625.354-.7.687-1.57.687-1.795 0-.134.075-.244.167-.244.091 0 .166-.15.166-.333 0-.184.075-.334.167-.334.092 0 .167-.15.167-.333 0-.183.056-.333.126-.333.069 0 .232-.244.362-.542.283-.647 1.044-1.852 1.22-1.931.069-.03.125-.161.125-.291 0-.13.062-.236.139-.236.076 0 .244-.204.375-.452.365-.699.765-1.123 4.083-4.34.307-.298.602-.542.654-.542.093 0 .328-.178.826-.625.128-.114.299-.208.38-.208.081 0 .292-.135.47-.301.178-.165.567-.409.865-.541.298-.131.541-.296.541-.365 0-.07.15-.126.334-.126.183 0 .333-.075.333-.167 0-.092.073-.167.162-.167.089 0 .596-.195 1.125-.434.53-.238 1.151-.509 1.38-.602.229-.093.547-.235.706-.316a1.84 1.84 0 0 1 .698-.148c.225 0 .456-.075.512-.166.057-.092.25-.167.429-.167s.456-.074.615-.164c.388-.219 2.535-.505 4.818-.642 1.024-.061 1.918-.167 1.986-.236.179-.179 1.806-.154 1.994.031m33.992 94.844c-.057.092-.324.167-.594.167-.269 0-.49.075-.49.167 0 .091-.136.166-.302.166-.488 0-1.574.593-2.2 1.201-1.052 1.023-1.178 1.206-2.202 3.199-.089.174-.203 1.352-.254 2.619l-.091 2.304-1.684.047-1.683.047-.051 1.078c-.083 1.775.329 2.505 1.415 2.505.304 0 .552.075.552.167 0 .092.338.167.75.167h.75v18.5H249v-18.5h5.833v-4h-6.166v-.99c0-.545.075-1.037.166-1.094.092-.056.167-.354.167-.66 0-1.651 1.502-2.923 3.449-2.923.701 0 1.218-.071 1.218-.167 0-.091.217-.166.482-.166.573 0 .626-.113.776-1.64.158-1.603.036-2.027-.585-2.027-.268 0-.533-.075-.59-.167-.058-.094-.887-.166-1.917-.166-1.029 0-1.858.072-1.916.166m-61.834.334c-.056.091-.323.166-.593.166-.269 0-.49.075-.49.167 0 .092-.187.167-.417.167-.229 0-.416.087-.416.194 0 .107-.048.147-.107.088-.058-.058-.313.042-.567.223-.254.18-.541.328-.639.328-.316 0-2.38 2.23-2.661 2.875-.149.344-.329.625-.399.625s-.127.138-.127.306c0 .168-.052.357-.115.419-.498.499-.833 5.582-.385 5.858.091.057.166.242.166.411 0 .333.671 1.721.875 1.812.069.03.125.147.125.259 0 .45 2.051 2.268 2.559 2.268.136 0 .272.057.302.125.093.208 1.482.875 1.822.875.174 0 .317.075.317.167 0 .092.114.167.253.167.138 0 .382.066.541.146.579.293 1.967.689 2.415.688.252-.001.458.074.458.166 0 .091.219.166.486.166s.511.057.542.125c.03.069.43.31.889.535 1.624.799 2.416 1.981 2.416 3.602 0 1.577-1.067 3.572-1.91 3.572-.152 0-.237.063-.189.141.049.078-.109.247-.349.375-.592.317-5.572.339-5.677.025-.038-.114-.25-.208-.472-.208-.221 0-.403-.066-.403-.146 0-.081-.225-.24-.5-.354-.275-.114-.5-.273-.5-.354 0-.08-.08-.146-.177-.146-.098 0-.424-.187-.725-.417-.3-.229-.632-.416-.738-.416-.106 0-.193-.075-.193-.167 0-.092-.386-.167-.857-.167-.896 0-1.81.631-1.81 1.249 0 .138-.075.251-.166.251-.092 0-.167.099-.167.219s-.15.379-.333.576c-.184.197-.334.467-.334.601 0 .134-.091.274-.203.311-.211.07.485 1.099.756 1.117.17.012 1.344.881 1.42 1.051.03.069.161.125.291.125.13 0 .236.075.236.167 0 .092.144.167.32.167.175 0 .344.059.375.133.096.229 1.693.905 2.347.993.344.046.625.149.625.229 0 .08.375.145.833.145.459 0 .834.075.834.166 0 .103.861.167 2.25.167s2.25-.064 2.25-.167c0-.091.333-.166.74-.166s.781-.067.831-.148c.05-.081.43-.198.843-.26.414-.062.752-.175.752-.25 0-.076.264-.263.586-.416.669-.317 3.081-2.588 3.081-2.9 0-.114.15-.368.333-.565.184-.197.334-.493.334-.659 0-.166.075-.302.166-.302.092 0 .167-.146.167-.324 0-.178.075-.37.167-.426.091-.057.166-.357.166-.667 0-.31.075-.61.167-.667.098-.06.167-1.026.167-2.333 0-1.307-.069-2.273-.167-2.333-.092-.057-.167-.286-.167-.51 0-.224-.065-.407-.145-.407-.081 0-.19-.216-.242-.48-.053-.264-.212-.596-.354-.738-.142-.142-.259-.313-.259-.379 0-.118-.763-.868-1.776-1.745-.579-.501-2.502-1.455-3.224-1.6-.279-.055-.547-.166-.596-.246-.05-.08-.273-.145-.497-.145-.224 0-.407-.075-.407-.167 0-.092-.225-.167-.5-.167s-.5-.075-.5-.166c0-.092-.183-.167-.406-.167-.224 0-.454-.075-.51-.167-.057-.091-.286-.166-.51-.166-.224 0-.407-.075-.407-.167 0-.092-.146-.167-.323-.167-.178 0-.367-.069-.419-.154-.052-.084-.319-.203-.593-.263-.274-.06-.498-.166-.498-.234 0-.069-.193-.229-.428-.355-1.257-.672-1.83-2.894-1.088-4.216.641-1.141.779-1.287 1.598-1.683 1.999-.968 3.517-.985 5.918-.068.32.123.62.261.666.307.046.046.309.196.584.333.275.138.645.381.823.542 1.041.94 2.224.361 3.151-1.543.672-1.382.758-1.954.317-2.119-.16-.06-.481-.302-.712-.536-.64-.649-2.107-1.441-2.997-1.619-.274-.055-.499-.166-.499-.246 0-.08-.263-.146-.583-.146-.321 0-.584-.075-.584-.166 0-.105-1.135-.167-3.073-.167-1.869 0-3.114.065-3.177.167m81.625 2.582c-.114.13-.208.348-.208.484s-.075.294-.167.35c-.091.057-.166.536-.166 1.066 0 .529-.053 1.014-.116 1.078-.13.129-.125.105-.288 1.606-.279 2.581-.095 2.303-1.606 2.428-2.105.175-2.324.346-2.324 1.817 0 1.374.095 1.755.435 1.755.128 0 .232.075.232.167 0 .098.583.167 1.417.167h1.416v7.406c0 4.759.06 7.444.167 7.51.092.057.167.231.167.388 0 .819 1.233 2.411 2.115 2.73.303.11.551.259.551.332 0 .074.225.134.5.134s.5.075.5.166c0 .101.723.167 1.834.167 1.111 0 1.833-.066 1.833-.167 0-.091.262-.166.583-.166.321 0 .584-.075.584-.167 0-.092.212-.167.472-.167.598 0 2.356-1.146 2.359-1.538.001-.159-.261-.699-.581-1.2-.321-.502-.584-.987-.584-1.078 0-.575-1.354-.863-2.141-.454-1.245.647-1.308.659-1.973.399-.349-.137-.71-.409-.8-.605-.091-.197-.222-.357-.292-.357-.07 0-.127-2.998-.127-6.663v-6.663l2.958-.045 2.959-.046.047-1.958.047-1.958H273.5V111.5l-1.792.006c-1.332.005-1.845.067-2 .243m-50.625 6.418c-.056.091-.398.166-.76.166-.361 0-.656.066-.656.146 0 .08-.306.194-.679.254-.373.059-.86.227-1.083.373-.223.146-.405.208-.405.138 0-.071-.14.033-.311.23-.171.198-.387.359-.48.359-.452 0-2.876 2.799-2.876 3.322 0 .098-.056.179-.125.18-.167.001-.541.824-.541 1.188 0 .16-.075.337-.167.394-.092.056-.167.271-.167.476 0 .206-.067.445-.149.532-.536.567-.536 7.083 0 7.65.082.087.149.368.149.625s.075.467.167.467c.092 0 .167.135.167.3 0 .372.372 1.197.541 1.198.069.001.125.082.125.18 0 1.13 3.416 4.103 5.071 4.414.328.061.596.178.596.26 0 .081.338.148.75.148s.75.075.75.166c0 .103.83.167 2.157.167 1.258 0 2.2-.069 2.26-.167.056-.091.398-.166.76-.166.361 0 .656-.075.656-.167 0-.092.162-.167.359-.167.506 0 2.146-.823 2.641-1.327.23-.232.605-.522.834-.643.419-.221 1.666-1.858 1.666-2.186 0-.098.075-.177.167-.177.092 0 .167-.15.167-.333 0-.184.075-.334.166-.334.092 0 .167-.113.167-.252s.075-.401.167-.583l.333-.662c.092-.182.167-.516.167-.741 0-.225.075-.455.166-.512.102-.062.167-1.331.167-3.25 0-1.918-.065-3.187-.167-3.25-.091-.056-.166-.324-.166-.595 0-.271-.075-.642-.167-.824l-.333-.662c-.092-.182-.167-.444-.167-.583 0-.139-.075-.252-.167-.252-.091 0-.166-.15-.166-.334 0-.183-.075-.333-.167-.333-.092 0-.167-.094-.167-.208 0-.291-1.459-2.12-1.793-2.248-.151-.058-.488-.31-.749-.559-.563-.538-2.096-1.318-2.589-1.318-.192 0-.395-.075-.452-.167-.057-.092-.394-.167-.75-.167s-.693-.075-.75-.166c-.059-.096-.943-.167-2.083-.167-1.141 0-2.024.071-2.084.167m117 0c-.056.091-.398.166-.76.166-.361 0-.656.067-.656.148 0 .081-.338.198-.75.26-.413.062-.751.164-.752.228-.001.141-.819.531-1.115.531-.119 0-.217.075-.217.167 0 .091-.085.166-.188.166-.104 0-.311.132-.459.294-.148.161-.556.507-.906.767-.816.607-.872.779-.505 1.553.881 1.861 2.44 2.642 3.43 1.72.197-.184.456-.334.576-.334.121 0 .219-.056.219-.126 0-.069.244-.229.542-.355.504-.214.795-.334 2.008-.829.574-.234 2.393-.251 2.533-.023.057.092.268.167.47.167.807 0 1.947 1.56 1.947 2.664 0 .368.075.669.167.669.091 0 .166.412.166.917v.916l-.541.031c-.298.017-.767.061-1.042.096-.275.036-1.062.103-1.75.149-.687.046-1.321.153-1.408.237-.087.085-.439.154-.782.154s-.67.075-.727.167c-.056.091-.319.166-.583.166-.264 0-.527.075-.583.167-.057.092-.286.167-.51.167-.224 0-.407.075-.407.166 0 .092-.117.167-.26.167-1.38 0-4.407 2.765-4.407 4.026 0 .169-.075.307-.166.307-.1 0-.167.636-.167 1.574 0 .869.075 1.619.167 1.676.091.057.166.237.166.401 0 .353.446 1.313.801 1.724.138.161.191.292.118.292-.296 0 1.365 1.186 1.79 1.277.252.054.458.164.458.244 0 .08.262.146.583.146.321 0 .584.075.584.166 0 .102.777.167 2 .167 1.222 0 2-.065 2-.167 0-.091.262-.166.583-.166.321 0 .583-.065.583-.145 0-.08.298-.185.662-.234.365-.048.782-.208.929-.355.147-.146.333-.266.414-.266.081 0 .334-.188.564-.417.229-.229.462-.417.519-.417.057 0 .212-.109.346-.243.382-.382.733-.129.733.528 0 1.131.724 1.549 2.684 1.549h1.649v-8.24c0-5.314-.059-8.277-.166-8.344-.092-.056-.167-.361-.167-.676 0-.316-.075-.574-.167-.574-.091 0-.166-.143-.166-.317 0-.299-.551-1.495-.917-1.992-.959-1.299-3.021-2.691-3.99-2.691-.234 0-.427-.075-.427-.166 0-.103-.885-.167-2.323-.167-1.369 0-2.366.068-2.427.167m31.25 0c0 .091-.151.166-.335.166-.361 0-1.004.312-1.204.584-.067.091-.123.108-.125.037-.004-.223-1.448 1.304-1.945 2.058l-.474.718-.089-1.361c-.128-1.946-.248-2.036-2.737-2.036H358.5v22.834h5.333v-7.139c0-7.073.004-7.145.375-7.876.709-1.394 1.452-2.319 1.863-2.319.144 0 .263-.056.264-.125.003-.351 1.032-.541 2.92-.541 2.435 0 2.341.097 2.481-2.555.1-1.883-.011-2.279-.641-2.279-.144 0-.262-.075-.262-.166 0-.101-.694-.167-1.75-.167-1.055 0-1.75.066-1.75.167m20.5 0c0 .091-.3.166-.666.166-.367 0-.667.067-.667.148 0 .081-.338.198-.75.26-.413.062-.75.169-.75.238 0 .069-.262.228-.583.354-.321.126-.584.29-.584.365 0 .074-.093.136-.208.136-.29.001-2.251 2.058-2.498 2.621-.112.254-.243.499-.29.545-.226.217-.837 1.567-.837 1.849 0 .175-.075.318-.167.318-.091 0-.166.22-.166.49 0 .269-.075.536-.167.593-.102.063-.167 1.332-.167 3.25s.065 3.187.167 3.25c.092.057.167.361.167.677 0 .315.075.573.166.573.092 0 .167.225.167.5s.075.5.167.5c.091 0 .166.15.166.333 0 .184.06.334.133.334.073 0 .276.356.452.791.646 1.601 3.952 4.375 5.214 4.375.191 0 .395.075.451.167.057.092.436.167.844.167.407 0 .74.075.74.166 0 .103.805.167 2.083.167s2.083-.064 2.083-.167c0-.091.333-.166.74-.166.408 0 .781-.065.83-.145.049-.079.372-.182.718-.229.768-.103 2.198-.749 2.565-1.159.148-.165.346-.301.439-.301.251 0 1.542-1.375 1.542-1.642 0-.211-.972-1.658-1.443-2.149-.215-.224-2.224-.299-2.224-.083 0 .216-2.401 1.374-2.849 1.374-.164 0-.344.075-.401.167-.057.092-.804.167-1.667.167-.862 0-1.61-.075-1.666-.167-.057-.092-.237-.167-.401-.167-.978 0-2.744-1.598-3.236-2.929-.167-.451-.373-.951-.459-1.11-.085-.159-.154-.586-.154-.949 0-.362-.075-.705-.167-.762-.092-.056-.167-.248-.167-.426 0-.315.186-.324 7.314-.324h7.315l.269-.41c.31-.474.4-3.756.102-3.756-.091 0-.166-.333-.166-.74 0-.408-.075-.787-.167-.844-.092-.056-.167-.246-.167-.422 0-1.009-2.705-4.661-3.453-4.661-.117 0-.213-.066-.213-.147 0-.143-.624-.407-.875-.371-.069.01-.125-.057-.125-.149 0-.091-.183-.166-.407-.166-.224 0-.453-.075-.51-.167-.057-.092-.394-.167-.75-.167s-.693-.075-.75-.166c-.059-.096-.918-.167-2.01-.167-1.16 0-1.907.065-1.907.167m-100.555.277c-.171.171-.132.857.055.973.092.056.167.281.167.5 0 .218.075.443.167.5.091.056.166.319.166.583 0 .264.075.527.167.583.092.057.167.286.167.51 0 .224.075.407.166.407.092 0 .167.225.167.5s.065.5.144.5c.079 0 .19.336.246.746.057.411.172.88.257 1.042.084.162.243.633.353 1.045.11.413.267.881.35 1.04.082.159.15.436.15.615s.075.372.167.429c.091.056.166.286.166.51 0 .223.075.406.167.406.092 0 .167.225.167.5s.066.5.147.5c.081 0 .199.412.262.914.063.503.184.958.269 1.01.085.053.155.275.155.493 0 .218.075.443.167.5.091.057.166.282.166.5 0 .218.075.443.167.5.092.057.167.282.167.5 0 .218.075.443.166.5.092.057.167.286.167.51 0 .224.075.407.167.407.091 0 .166.184.166.408 0 .225.069.582.153.792.317.793.399 1.053.372 1.181-.016.072.153.672.374 1.333l.403 1.202 2.185.047c2.305.049 3.013-.193 3.013-1.031 0-.138.069-.422.153-.633.417-1.041.41-1.018.615-2.091.057-.298.17-.542.251-.542.082 0 .148-.22.148-.49 0-.269.075-.536.167-.593.091-.057.166-.324.166-.593 0-.27.075-.49.167-.49.092 0 .167-.183.167-.407 0-.224.075-.453.166-.51.092-.057.167-.25.167-.429s.067-.456.149-.615c.208-.406.684-2.096.684-2.429 0-.152.075-.277.167-.277.092 0 .168-.131.169-.292.003-.341.384-1.483.55-1.649.063-.063.114-.323.114-.577 0-.254.075-.509.167-.565.092-.057.167-.274.167-.482 0-.737.647-.488.661.254.005.264.41 1.715.668 2.394.331.871.837 2.573.837 2.814 0 .148.075.27.167.27.092 0 .167.225.167.5s.075.5.166.5c.092 0 .167.187.167.416 0 .23.075.417.167.417.091 0 .166.2.166.444 0 .466.432 2.102.685 2.595.082.16.149.436.149.616 0 .179.075.372.166.428.092.057.167.286.167.51 0 .224.075.407.167.407.091 0 .166.225.166.5s.075.5.167.5c.092 0 .167.155.167.345 0 .742.328.834 2.784.785l2.299-.047.052-.541c.029-.298.123-.542.209-.542.085 0 .156-.225.156-.5s.075-.5.166-.5c.092 0 .167-.225.167-.5s.075-.5.167-.5c.091 0 .166-.151.166-.336 0-.184.066-.465.147-.625.252-.499.513-1.441.625-2.255.059-.431.172-.784.251-.784.079 0 .144-.187.144-.417 0-.229.075-.416.167-.416.091 0 .166-.225.166-.5s.075-.5.167-.5c.092 0 .167-.189.167-.419 0-.231.086-.587.192-.792.421-.814.474-.967.474-1.361 0-.225.075-.455.167-.512.092-.056.167-.281.167-.5 0-.218.068-.439.151-.49.083-.051.202-.468.265-.926s.183-.875.266-.927c.083-.051.151-.272.151-.49 0-.218.075-.443.167-.5.091-.057.166-.324.166-.593 0-.27.075-.49.167-.49.092 0 .167-.225.167-.5s.075-.5.166-.5c.092 0 .167-.118.167-.263 0-.144.188-.82.417-1.503.229-.683.416-1.385.416-1.561 0-.176.075-.367.167-.423.092-.057.167-.324.167-.594v-.49h-2.25c-1.281 0-2.25.067-2.25.156 0 .085-.139.199-.308.253-.359.114-.692.763-.692 1.349 0 .225-.067.409-.148.409-.081 0-.189.206-.24.458-.228 1.132-.313 1.48-.439 1.792-.075.183-.228.671-.34 1.083-.113.413-.279.952-.369 1.199-.09.246-.117.522-.061.613a.198.198 0 0 1-.067.27c-.093.058-.17.325-.17.595 0 .269-.075.49-.166.49-.092 0-.167.221-.167.49 0 .27-.075.537-.167.593-.091.057-.166.319-.166.584 0 .264-.075.526-.167.583-.092.057-.167.282-.167.5 0 .218-.075.443-.166.5-.092.057-.167.324-.167.593 0 .27-.059.49-.13.49-.072 0-.146.192-.166.426a2.275 2.275 0 0 1-.203.739c-.092.172-.168.539-.168.815 0 .701-.283.801-.416.147-.149-.731-.425-1.646-.604-1.999a1.617 1.617 0 0 1-.146-.616c0-.179-.075-.372-.167-.428-.092-.057-.167-.319-.167-.584 0-.264-.075-.526-.166-.583-.092-.057-.167-.286-.167-.51 0-.224-.065-.407-.145-.407-.08 0-.196-.381-.258-.848-.062-.466-.175-.972-.252-1.125-.228-.451-.845-2.465-.845-2.757 0-.148-.075-.27-.167-.27-.091 0-.166-.225-.166-.5s-.075-.5-.167-.5c-.092 0-.167-.262-.167-.583 0-.321-.075-.583-.166-.583-.092 0-.167-.225-.167-.5s-.075-.5-.167-.5c-.091 0-.166-.154-.166-.342 0-1.195-.535-1.492-2.688-1.492-1.735 0-2.479.32-2.479 1.066 0 .137-.075.294-.167.351-.091.057-.166.324-.166.593 0 .27-.075.49-.167.49-.092 0-.167.183-.167.407 0 .224-.075.453-.166.51-.092.057-.167.282-.167.5 0 .218-.068.439-.151.49-.083.052-.203.469-.266.927-.063.458-.182.875-.265.926-.083.051-.151.351-.151.667 0 .315-.075.573-.167.573-.092 0-.167.188-.167.417 0 .229-.075.417-.166.417-.092 0-.167.188-.167.419 0 .23-.071.549-.159.708-.3.547-.838 2.303-.945 3.088-.06.431-.173.785-.252.785-.079 0-.144.225-.144.5s-.075.5-.167.5c-.091 0-.166.23-.166.512 0 .795-.55.588-.702-.265-.251-1.409-.342-1.754-.484-1.843-.081-.05-.148-.275-.148-.5 0-.225-.066-.539-.148-.698-.081-.159-.281-.89-.444-1.623-.163-.733-.359-1.405-.436-1.492-.076-.087-.138-.364-.138-.615s-.075-.503-.167-.56c-.092-.056-.167-.319-.167-.583 0-.264-.075-.527-.166-.583-.092-.057-.167-.324-.167-.594 0-.269-.075-.49-.167-.49-.091 0-.166-.262-.166-.583 0-.321-.06-.583-.133-.583-.073 0-.215-.477-.315-1.06-.22-1.288-.674-2.293-1.082-2.4-.167-.044-.304-.145-.304-.226 0-.17-4.387-.205-4.555-.037m103.849 3.709c.159.084.645.309 1.08.5.828.364 1.793 1.237 1.793 1.622 0 .124.07.225.155.225.085 0 .201.431.258.958.057.527.175 1.09.263 1.25.151.275-.132.292-4.925.292-5.489 0-5.286.036-4.936-.867.603-1.555.851-1.975 1.578-2.675.453-.435.925-.791 1.048-.791.124 0 .226-.075.226-.167 0-.092.183-.167.406-.167.224 0 .454-.075.51-.166.13-.209 2.154-.22 2.544-.014m-168.377.347c.057.092.277.167.489.167.213 0 .48.112.594.25.114.137.276.25.36.25.475 0 1.807 1.884 1.807 2.557 0 .141.075.303.167.359.091.057.166.357.166.667 0 .31.075.61.167.667.098.06.167 1.026.167 2.333 0 1.307-.069 2.273-.167 2.333-.092.057-.167.357-.167.667 0 .31-.075.61-.166.667-.092.056-.167.218-.167.359 0 .629-1.324 2.557-1.756 2.557-.056 0-.214.113-.351.25-.138.138-.428.25-.645.25-.217 0-.441.075-.498.167-.125.203-2.806.223-3.211.025a87.096 87.096 0 0 0-.872-.422c-.685-.329-1.667-1.155-1.667-1.403 0-.095-.056-.197-.125-.228-.192-.085-.708-1.277-.708-1.634 0-.175-.075-.365-.167-.421-.092-.057-.167-.469-.167-.917 0-.448-.075-.86-.166-.917-.092-.056-.167-.656-.167-1.333 0-.677.075-1.277.167-1.333.091-.057.166-.469.166-.917 0-.448.075-.86.167-.917.092-.056.167-.245.167-.418 0-1.171 2.096-3.498 3.15-3.498.192 0 .35-.075.35-.167 0-.099.607-.167 1.49-.167.819 0 1.536.075 1.593.167m119.083 10.793c0 1.486-.034 1.663-.396 2.042-.754.789-2.276 1.832-2.674 1.832-.134 0-.29.075-.346.166-.151.245-3.179.21-3.626-.041-.977-.549-1.454-1.672-1.2-2.828.122-.553 1.129-1.631 1.525-1.631.119 0 .217-.075.217-.166 0-.092.188-.167.417-.167.229 0 .417-.066.417-.147 0-.082.424-.201.943-.266.519-.065 1.101-.181 1.292-.258.191-.078 1.042-.146 1.89-.152l1.541-.01v1.626"
              fill="#5c6c64"/>
        <path d="M64.125.113C63.231.149 62.5.251 62.5.339c0 .089-.559.161-1.25.161-.722 0-1.25.07-1.25.167 0 .091-.413.166-.917.166s-.916.067-.916.149c0 .082-.675.203-1.5.268s-1.5.186-1.5.268c0 .082-.3.149-.667.149-.367 0-.667.075-.667.166 0 .092-.262.167-.583.167-.321 0-.583.075-.583.167 0 .091-.3.166-.667.166-.367 0-.667.075-.667.167 0 .092-.187.167-.416.167-.229 0-.417.075-.417.166 0 .092-.225.167-.5.167s-.5.066-.5.147c0 .082-.413.199-.917.262s-.916.185-.916.27c0 .085-.225.154-.5.154s-.5.075-.5.167c0 .092-.188.167-.417.167-.229 0-.417.075-.417.166 0 .092-.15.167-.333.167-.183 0-.333.075-.333.167 0 .091-.225.166-.5.166s-.5.075-.5.167c0 .092-.113.167-.25.167-.138 0-.25.075-.25.166 0 .092-.187.167-.416.167-.475 0-1.751.515-1.751.706 0 .07-.15.127-.333.127-.184 0-.334.075-.334.167 0 .092-.15.167-.333.167-.183 0-.333.075-.333.166 0 .092-.15.167-.334.167-.183 0-.333.075-.333.167 0 .091-.113.166-.25.166-.138 0-.25.075-.25.167 0 .092-.112.167-.249.167-.347 0-1.584.551-1.584.706 0 .07-.15.127-.334.127-.183 0-.333.075-.333.167 0 .091-.133.166-.297.166-.163 0-.404.15-.536.334-.132.183-.374.333-.537.333-.163 0-.297.056-.297.125-.001.069-.338.264-.75.433-.412.17-.75.376-.75.459 0 .082-.096.15-.213.15-.117 0-.321.15-.453.333-.132.183-.357.333-.5.333-.143 0-.368.15-.5.334-.132.183-.365.333-.517.333-.152 0-.369.112-.483.25-.114.137-.281.25-.371.25-.089 0-.372.225-.629.5s-.56.5-.673.5c-.222 0-.827.628-.827.859 0 .077-.147.141-.326.141-.179 0-.513.187-.743.417-.229.229-.477.416-.551.416-.074 0-.495.377-.934.837-.44.461-.859.801-.931.756-.071-.044-.589.386-1.15.955-.56.57-1.266 1.279-1.567 1.576-.302.297-.791.785-1.089 1.083-.297.299-.784.786-1.083 1.084-.299.297-.778.784-1.065 1.083-.288.299-.759.758-1.048 1.021-.289.263-.643.706-.787.984a3.611 3.611 0 0 1-.744.912c-.265.223-.482.476-.482.563 0 .087-.263.42-.584.741-.321.321-.583.663-.583.761 0 .097-.225.387-.5.644s-.5.571-.5.697-.15.338-.333.47c-.184.132-.334.304-.334.382 0 .078-.093.246-.208.374-.51.569-.625.744-.625.95 0 .121-.15.329-.333.461-.184.132-.334.336-.334.453 0 .117-.075.213-.166.213-.092 0-.167.123-.167.272 0 .15-.138.394-.307.542-.168.148-.357.476-.42.728-.062.252-.186.458-.276.458-.09 0-.164.113-.164.25 0 .138-.075.25-.166.25-.092 0-.167.15-.167.334 0 .183-.075.333-.167.333-.091 0-.166.122-.166.272 0 .15-.135.394-.3.542-.269.241-.686 1.04-1.38 2.644-.129.298-.292.542-.361.542S7 39.65 7 39.833c0 .184-.075.334-.167.334-.091 0-.166.15-.166.333 0 .183-.057.334-.125.335-.169.001-.542.826-.542 1.198 0 .165-.075.3-.167.3-.091 0-.167.132-.167.292-.001.16-.113.506-.25.769s-.249.619-.249.792c0 .173-.075.314-.167.314-.092 0-.167.15-.167.333 0 .184-.075.334-.166.334-.092 0-.167.187-.167.416 0 .23-.075.417-.167.417-.091 0-.166.225-.166.5S4.092 47 4 47c-.092 0-.167.183-.167.407 0 .224-.069.45-.155.502-.085.053-.206.508-.269 1.01-.063.503-.18.914-.262.914-.081 0-.147.188-.147.417 0 .229-.075.417-.167.417-.091 0-.166.3-.166.666 0 .367-.075.667-.167.667-.092 0-.167.188-.167.417 0 .229-.075.416-.166.416-.092 0-.167.375-.167.834 0 .458-.075.833-.167.833-.091 0-.166.262-.166.583 0 .321-.068.584-.151.584-.084 0-.205.712-.27 1.583-.066.871-.185 1.583-.266 1.583-.081 0-.147.488-.147 1.084C.833 60.528.761 61 .667 61 .572 61 .5 61.489.5 62.133c0 .66-.084 1.217-.2 1.334-.287.287-.285 14.732.002 14.828.131.044.198.515.198 1.386C.5 80.449.57 81 .667 81c.092 0 .166.444.166 1 0 .55.066 1 .146 1 .079 0 .198.75.263 1.667.065.916.187 1.666.271 1.666.085 0 .154.258.154.574 0 .315.075.62.166.676.092.057.167.361.167.677 0 .315.075.573.167.573.091 0 .166.263.166.584 0 .32.075.583.167.583.092 0 .167.3.167.667 0 .366.075.666.166.666.092 0 .167.188.167.417 0 .229.066.417.147.417.082 0 .199.411.262.914.063.502.184.957.269 1.01.086.052.155.278.155.502 0 .224.075.407.167.407.092 0 .167.135.167.3 0 .373.372 1.197.541 1.199.069 0 .125.226.125.501s.075.5.167.5c.092 0 .167.15.167.333 0 .184.075.334.166.334.092 0 .167.168.168.375.001.206.113.589.25.852s.249.581.249.708.056.232.125.233c.169.001.542.826.542 1.198 0 .165.075.3.166.3.092 0 .167.15.167.334 0 .183.075.333.167.333.091 0 .166.112.166.25s.075.25.167.25c.092 0 .167.11.167.244 0 .304.524 1.423.666 1.423.058 0 .208.262.334.583.126.321.29.583.364.583.075 0 .136.15.136.334 0 .183.075.333.166.333.092 0 .167.133.167.297 0 .163.147.402.327.532.18.13.371.436.425.681.054.245.244.602.423.794.179.192.325.426.325.521 0 .095.15.266.333.38.184.115.334.324.334.465 0 .141.15.365.333.497.183.132.333.364.333.516 0 .152.113.37.25.484.138.114.25.28.25.37 0 .089.225.373.5.63s.5.55.5.651c0 .102.225.42.5.708s.5.585.5.66c0 .075.263.399.584.72.32.32.583.62.583.666 0 .083.744.945 1.458 1.689.207.215.375.433.375.485 0 .094.911 1.084 1.96 2.129.299.298.786.786 1.083 1.085 1.989 1.998 3.089 3.04 3.211 3.04.052 0 .278.169.502.375 1.027.946 1.239 1.125 1.327 1.125.052 0 .365.27.695.6.33.329.811.673 1.071.764.259.09.517.308.572.483.056.176.217.32.357.32.14 0 .465.225.722.5.257.275.579.5.716.5s.293.116.348.258c.054.141.325.336.601.433.276.096.502.242.502.325 0 .083.133.15.297.15.163 0 .404.15.536.334.132.183.302.333.377.333.076 0 .298.15.495.333.197.184.456.334.576.334.121 0 .219.075.219.166 0 .092.145.167.321.167a.94.94 0 0 1 .572.25c.137.137.33.25.428.25.099 0 .179.075.179.167 0 .091.15.166.333.166.184 0 .334.075.334.167 0 .092.122.167.272.167.149 0 .393.131.541.292.306.332 1.408.874 1.776.874.134 0 .244.075.244.167 0 .092.112.167.25.167.137 0 .25.075.25.166 0 .092.15.167.333.167.184 0 .334.075.334.167 0 .091.15.166.333.166.183 0 .333.075.333.167 0 .092.138.167.305.167.168 0 .674.187 1.125.416.451.228.952.416 1.112.416.16.001.292.076.292.168 0 .091.187.166.416.166.23 0 .417.075.417.167 0 .092.15.167.333.167.184 0 .334.075.334.166 0 .092.225.167.5.167s.5.075.5.167c0 .091.187.166.416.166.23 0 .417.075.417.167 0 .092.225.167.5.167s.5.069.5.154c0 .085.413.207.917.27.504.063.916.18.916.262 0 .081.183.147.407.147.224 0 .453.075.51.167.057.091.361.166.677.166.315 0 .573.075.573.167 0 .092.225.167.5.167s.5.075.5.166c0 .092.262.167.583.167.321 0 .584.075.584.167 0 .091.331.166.736.166.405 0 .761.072.791.159.031.087.75.21 1.598.274.848.063 1.541.179 1.541.258 0 .078.413.143.917.143s.917.075.917.166c0 .096.523.167 1.236.167.841 0 1.258.067 1.305.208.055.163 1.779.209 7.875.209 6.097 0 7.821-.046 7.875-.209.048-.141.465-.208 1.306-.208.713 0 1.236-.071 1.236-.167 0-.094.472-.166 1.083-.166.596 0 1.084-.067 1.084-.149 0-.082.675-.203 1.5-.268s1.5-.186 1.5-.268c0-.082.3-.149.666-.149.367 0 .667-.075.667-.166 0-.092.263-.167.583-.167.321 0 .584-.075.584-.167 0-.091.3-.166.666-.166.367 0 .667-.075.667-.167 0-.092.263-.167.583-.167.321 0 .584-.075.584-.166 0-.092.225-.167.5-.167s.5-.068.5-.151c0-.083.375-.203.833-.266.458-.063.875-.182.926-.265.052-.083.272-.151.491-.151.218 0 .443-.075.5-.167.056-.092.286-.167.51-.167.223 0 .406-.075.406-.166 0-.092.15-.167.334-.167.183 0 .333-.075.333-.167 0-.091.188-.166.417-.166.229 0 .416-.075.416-.167 0-.092.15-.167.334-.167.183 0 .333-.065.333-.144 0-.08.317-.188.705-.24.387-.052.731-.174.764-.272.032-.097.203-.177.378-.177.176 0 .32-.075.32-.167 0-.091.15-.166.333-.166.183 0 .333-.075.333-.167 0-.092.15-.167.334-.167.183 0 .333-.075.333-.166 0-.092.112-.167.25-.167s.25-.075.25-.167c0-.091.15-.166.333-.166.184 0 .334-.075.334-.167 0-.092.112-.167.249-.167.347 0 1.584-.551 1.584-.706 0-.07.15-.127.333-.127.184 0 .334-.075.334-.167 0-.091.15-.166.333-.166.183 0 .333-.075.333-.167 0-.092.096-.167.214-.167.117 0 .321-.15.453-.333.132-.183.363-.333.514-.333.15 0 .549-.188.887-.417.338-.229.669-.417.736-.417.068 0 .231-.15.363-.333.132-.183.346-.333.476-.333.129 0 .356-.14.504-.31a1.7 1.7 0 0 1 .645-.428c.206-.065.375-.188.375-.274 0-.085.122-.155.272-.155.15 0 .394-.132.542-.293.148-.161.474-.398.725-.526.25-.129.499-.372.553-.541.053-.169.21-.307.348-.307.138 0 .355-.093.483-.208.503-.452.734-.625.831-.625.055 0 .466-.375.913-.833.446-.459.907-.834 1.024-.834.117 0 .677-.487 1.244-1.083s1.112-1.083 1.211-1.083c.255 0 3.687-3.456 3.687-3.713 0-.118.162-.324.36-.459.197-.135.516-.425.708-.646.192-.22.593-.649.891-.952.298-.304.541-.592.541-.641 0-.049.263-.367.584-.707.32-.34.583-.724.583-.853s.3-.497.667-.818c.366-.322.666-.672.666-.778 0-.106.15-.301.334-.433.183-.132.333-.375.333-.538 0-.164.187-.461.417-.66.229-.199.416-.445.416-.546 0-.1.15-.291.334-.423.183-.132.333-.357.333-.5 0-.143.15-.368.333-.5.184-.132.334-.327.334-.433 0-.106.112-.286.25-.4a.777.777 0 0 0 .25-.521c0-.172.075-.313.166-.313.092 0 .167-.132.167-.293 0-.161.15-.387.333-.501.184-.115.334-.32.334-.457s.075-.249.166-.249c.092 0 .167-.15.167-.333 0-.183.075-.333.167-.333.091 0 .166-.15.166-.334 0-.183.074-.333.164-.333.09 0 .21-.187.268-.417.057-.229.171-.416.253-.416.082 0 .149-.15.149-.334 0-.183.075-.333.166-.333.092 0 .167-.15.167-.333 0-.184.075-.334.167-.334.091 0 .166-.112.166-.25 0-.137.075-.25.167-.25.092 0 .167-.15.167-.333 0-.183.075-.333.166-.333.092 0 .167-.15.167-.334 0-.183.07-.333.156-.333.087 0 .208-.338.269-.75.062-.413.179-.75.261-.75.081 0 .147-.15.147-.333 0-.184.075-.334.167-.334.092 0 .167-.15.167-.333 0-.183.075-.333.166-.333.092 0 .167-.188.167-.417 0-.229.075-.417.167-.417.091 0 .166-.15.166-.333 0-.183.075-.333.167-.333.092 0 .167-.142.167-.315 0-.172.112-.529.249-.791.137-.263.249-.684.25-.936 0-.252.076-.458.167-.458.092 0 .167-.188.167-.417 0-.229.075-.417.167-.417.091 0 .166-.225.166-.5s.075-.5.167-.5c.092 0 .167-.225.167-.5s.075-.5.166-.5c.092 0 .167-.262.167-.583 0-.321.075-.583.167-.583.091 0 .166-.225.166-.5s.067-.5.149-.5c.083 0 .187-.282.233-.625.047-.344.165-.925.264-1.292s.182-.985.184-1.375c.002-.39.079-.708.17-.708.092 0 .167-.338.167-.75 0-.413.075-.75.167-.75.091 0 .166-.413.166-.917s.075-.917.167-.917c.094 0 .167-.472.167-1.083s.072-1.083.166-1.083c.1 0 .167-.639.167-1.584 0-.944.067-1.583.167-1.583.108 0 .166-2.111.166-6s-.058-6-.166-6c-.1 0-.167-.639-.167-1.583 0-.945-.067-1.584-.167-1.584-.094 0-.166-.472-.166-1.083s-.073-1.083-.167-1.083c-.092 0-.167-.413-.167-.917s-.075-.917-.166-.917c-.092 0-.167-.337-.167-.75 0-.412-.064-.75-.142-.75-.078 0-.191-.578-.251-1.284-.06-.706-.183-1.359-.274-1.45-.092-.091-.166-.413-.166-.716 0-.302-.075-.55-.167-.55-.092 0-.167-.225-.167-.5s-.075-.5-.166-.5c-.092 0-.167-.258-.167-.573 0-.316-.075-.62-.167-.677-.091-.056-.166-.286-.166-.51 0-.223-.075-.406-.167-.406-.092 0-.167-.225-.167-.5s-.075-.5-.166-.5c-.092 0-.167-.188-.167-.417 0-.229-.066-.417-.147-.417-.082 0-.199-.412-.262-.916s-.185-.917-.27-.917c-.085 0-.154-.15-.154-.333 0-.184-.075-.334-.167-.334-.092 0-.167-.135-.167-.3 0-.372-.372-1.197-.541-1.198-.069-.001-.125-.152-.125-.335 0-.183-.075-.333-.167-.333-.092 0-.167-.225-.167-.5s-.071-.5-.159-.5c-.087 0-.208-.263-.268-.584-.061-.32-.176-.583-.258-.583-.081 0-.148-.15-.148-.333 0-.184-.075-.334-.167-.334-.091 0-.166-.15-.166-.333 0-.183-.075-.333-.167-.333-.092 0-.167-.113-.167-.25 0-.138-.075-.25-.166-.25-.092 0-.167-.15-.167-.334 0-.183-.075-.333-.167-.333-.091 0-.166-.15-.166-.333 0-.184-.057-.334-.125-.334-.069-.001-.264-.338-.434-.75-.169-.412-.375-.75-.458-.75-.082 0-.15-.15-.15-.333 0-.183-.057-.333-.126-.333s-.232-.244-.362-.542c-.13-.298-.362-.654-.514-.792-.153-.137-.329-.456-.391-.708-.062-.252-.187-.458-.277-.458-.09 0-.163-.096-.163-.214 0-.117-.15-.321-.334-.453-.183-.132-.333-.357-.333-.5 0-.143-.15-.368-.333-.5-.184-.132-.334-.369-.334-.526 0-.156-.15-.332-.333-.391-.183-.058-.333-.247-.333-.42s-.188-.502-.417-.731c-.229-.229-.417-.487-.417-.572 0-.086-.224-.333-.498-.55-.274-.216-.499-.49-.5-.609-.002-.222-.148-.428-.793-1.118-.207-.221-.375-.444-.375-.496 0-.053-.319-.427-.709-.832-.854-.888-1.125-1.209-1.125-1.338 0-.177-5.485-5.584-5.665-5.584-.096 0-.581-.412-1.077-.916-.497-.505-.991-.917-1.099-.917-.108 0-.46-.3-.781-.667-.322-.366-.685-.666-.807-.666s-.41-.188-.639-.417c-.229-.229-.458-.417-.509-.417-.051 0-.328-.225-.616-.5-.287-.275-.624-.5-.748-.5s-.225-.061-.225-.135c0-.075-.263-.261-.584-.414-.32-.153-.583-.355-.583-.448 0-.093-.133-.169-.297-.169-.163 0-.404-.15-.536-.334-.132-.183-.346-.333-.476-.333-.129 0-.357-.138-.505-.306-.148-.168-.588-.445-.978-.615-.389-.17-.708-.37-.708-.444 0-.074-.15-.135-.333-.135-.184 0-.334-.075-.334-.167 0-.091-.096-.166-.213-.166-.117 0-.321-.15-.453-.334-.132-.183-.374-.333-.537-.333-.163 0-.297-.075-.297-.167 0-.091-.131-.169-.291-.172-.161-.003-.438-.115-.616-.25-.177-.134-.459-.244-.625-.244-.165 0-.301-.075-.301-.167 0-.092-.15-.167-.333-.167-.184 0-.334-.075-.334-.166 0-.092-.15-.167-.333-.167-.183 0-.333-.075-.333-.167 0-.091-.113-.166-.25-.166-.138 0-.25-.075-.25-.167 0-.092-.15-.167-.334-.167-.183 0-.333-.075-.333-.166 0-.092-.146-.167-.323-.167-.178 0-.366-.068-.418-.152-.052-.084-.394-.203-.76-.265s-.666-.181-.666-.264c0-.084-.225-.152-.5-.152s-.5-.075-.5-.167c0-.092-.112-.167-.25-.167-.137 0-.25-.075-.25-.166 0-.092-.225-.167-.5-.167s-.5-.075-.5-.167c0-.091-.15-.166-.333-.166-.183 0-.333-.075-.333-.167 0-.092-.183-.167-.407-.167-.224 0-.449-.068-.5-.151-.052-.083-.469-.202-.927-.265-.458-.063-.833-.183-.833-.266 0-.083-.225-.151-.5-.151s-.5-.075-.5-.167c0-.091-.263-.166-.583-.166-.321 0-.584-.075-.584-.167 0-.092-.3-.167-.666-.167-.367 0-.667-.075-.667-.166 0-.092-.225-.167-.5-.167s-.5-.075-.5-.167c0-.091-.331-.166-.736-.166-.405 0-.761-.074-.792-.163-.03-.09-.712-.213-1.514-.275C84.656 1.168 84 1.054 84 .975c0-.078-.45-.142-1-.142-.556 0-1-.074-1-.166C82 .573 81.532.5 80.931.5c-.659 0-1.094-.074-1.134-.192-.065-.195-12.015-.343-15.672-.195m44.612 34.533c.108.174-.646 3.186-1.915 7.646a37.99 37.99 0 0 0-.32 1.208c-.163.668-.948 3.63-1.193 4.5-.091.321-.23.846-.309 1.167-.079.32-.218.845-.308 1.166-.09.321-.353 1.296-.585 2.167-.231.871-.585 2.183-.785 2.917-.201.733-.401 1.577-.445 1.876-.044.299-.147.585-.229.635-.081.05-.148.308-.148.572 0 .264-.067.522-.148.572-.082.05-.185.336-.23.635-.044.299-.207.993-.36 1.543-.722 2.587-1.604 5.906-1.705 6.417a4.593 4.593 0 0 1-.224.75 4.471 4.471 0 0 0-.221.75c-.079.41-.83 3.276-1.114 4.25a69.129 69.129 0 0 0-.665 2.416c-.079.321-.219.846-.311 1.167a241.85 241.85 0 0 0-.773 2.917 238.032 238.032 0 0 1-.752 2.833 57.43 57.43 0 0 0-.659 2.417c-.076.32-.263 1.033-.414 1.583-.794 2.888-.965 3.536-1.037 3.917a4.407 4.407 0 0 1-.22.75 4.66 4.66 0 0 0-.226.75c-.047.229-.159.679-.25 1-.09.32-.39 1.445-.666 2.5a199.607 199.607 0 0 1-.784 2.916c-.155.55-.319 1.245-.363 1.544-.045.298-.148.584-.23.634-.081.051-.148.308-.148.572 0 .265-.065.521-.144.57-.079.049-.188.372-.242.718-.085.541-.349 1.557-1.14 4.379-.09.321-.202.771-.248 1a4.764 4.764 0 0 1-.226.75c-.078.183-.185.54-.237.792l-.192.916a5.203 5.203 0 0 1-.237.792 5.082 5.082 0 0 0-.234.833c-.052.275-.292 1.213-.534 2.084-.243.87-.477 1.827-.522 2.126-.044.299-.148.585-.229.635-.082.05-.148.308-.148.572 0 .264-.067.522-.149.572-.081.05-.184.336-.229.635-.044.299-.281 1.255-.526 2.126s-.487 1.851-.539 2.178c-.051.327-.216.757-.367.955-.269.356-.805-.17-33.019-32.371-18.009-18.002-32.77-32.807-32.8-32.898-.08-.24.127-.334 1.579-.712.715-.186 2.012-.529 2.883-.761a49.952 49.952 0 0 1 2-.503c.229-.044.567-.143.75-.221.183-.078.521-.179.75-.226a16.43 16.43 0 0 0 1-.249c.85-.24 3.82-1.028 4.5-1.194.539-.131 1.14-.295 2.417-.659.275-.078 1.362-.369 2.416-.647 1.054-.277 2.367-.629 2.917-.781.55-.152 1.262-.339 1.583-.416.321-.076.846-.213 1.167-.302 2.595-.727 6.286-1.702 6.833-1.806.23-.043.567-.142.75-.22.184-.078.521-.179.75-.226.23-.046.679-.158 1-.248 2.822-.791 3.838-1.055 4.379-1.14.346-.054.67-.163.719-.242.049-.079.273-.144.498-.144.225 0 .539-.066.698-.147.159-.081.815-.278 1.456-.438.642-.16 2.142-.551 3.334-.869 1.191-.318 2.354-.614 2.583-.658.229-.044.567-.143.75-.221a4.66 4.66 0 0 1 .75-.226c.229-.047.679-.159 1-.249.891-.252 5.008-1.358 5.667-1.524.32-.08.883-.231 1.25-.335.366-.104.929-.251 1.25-.328.32-.077 1.033-.263 1.583-.414 2.579-.709 3.544-.968 4.083-1.096.54-.129.926-.235 2.375-.65.298-.086 1.592-.429 2.875-.763a241.85 241.85 0 0 0 2.917-.773c.321-.091.771-.203 1-.25a4.66 4.66 0 0 0 .75-.226c.183-.078.521-.179.75-.226.229-.046.679-.159 1-.251 1.72-.491 3.983-1.072 4.46-1.144.299-.045.584-.149.635-.23.05-.082.345-.149.655-.149.31 0 .605-.066.655-.148.051-.081.336-.187.635-.234.299-.048.806-.162 1.127-.254 1.645-.472 3.807-1.047 4.25-1.13.275-.052.65-.16.833-.24.183-.081.521-.177.75-.214.229-.037.468-.078.532-.09.063-.013.156.043.205.123m146.138 77.104c.002.367.036.497.076.29.04-.208.039-.508-.003-.667-.042-.159-.074.01-.073.377m.022 8.833c0 1.1.027 1.529.06.952.033-.576.032-1.476-.001-2-.033-.523-.059-.052-.059 1.048m74.77.666c-.215.229-.359.444-.32.478.038.034.244-.153.457-.416.478-.588.393-.626-.137-.062m56.581 14.249c.263.274.51.466.549.427.087-.087-.732-.925-.904-.925-.067 0 .093.224.355.498"
              fill="#2c347c"/>
    </g>
</svg>